<mxfile host="app.diagrams.net" modified="2024-05-26T19:05:26.213Z" agent="Mozilla/5.0 (Windows NT 10.0; Win64; x64; rv:126.0) Gecko/20100101 Firefox/126.0" etag="0EQci7AAWBkN_m2WOWd6" version="24.4.8" type="device">
  <diagram name="Page-1" id="e7e014a7-5840-1c2e-5031-d8a46d1fe8dd">
    <mxGraphModel dx="1366" dy="783" grid="1" gridSize="10" guides="1" tooltips="1" connect="1" arrows="1" fold="1" page="1" pageScale="1" pageWidth="1169" pageHeight="826" background="none" math="0" shadow="0">
      <root>
        <mxCell id="0" />
        <mxCell id="1" parent="0" />
        <mxCell id="38" value="" style="ellipse;shape=endState;fillColor=#000000;strokeColor=#000000;fontSize=14;" parent="1" vertex="1">
          <mxGeometry x="660" y="760" width="30" height="30" as="geometry" />
        </mxCell>
        <mxCell id="yuZQpnkHnfRpSEt9olpA-43" value="" style="edgeStyle=orthogonalEdgeStyle;rounded=0;orthogonalLoop=1;jettySize=auto;html=1;fontSize=14;exitX=0.5;exitY=0.633;exitDx=0;exitDy=0;exitPerimeter=0;" parent="1" source="13" target="18" edge="1">
          <mxGeometry relative="1" as="geometry" />
        </mxCell>
        <mxCell id="13" value="" style="ellipse;shape=startState;fillColor=#000000;strokeColor=#120000;fontSize=14;" parent="1" vertex="1">
          <mxGeometry x="660" y="151" width="30" height="30" as="geometry" />
        </mxCell>
        <mxCell id="yuZQpnkHnfRpSEt9olpA-50" value="" style="edgeStyle=orthogonalEdgeStyle;rounded=0;orthogonalLoop=1;jettySize=auto;html=1;" parent="1" source="18" target="yuZQpnkHnfRpSEt9olpA-49" edge="1">
          <mxGeometry relative="1" as="geometry" />
        </mxCell>
        <mxCell id="18" value="update interrupt flags" style="fontSize=14;" parent="1" vertex="1">
          <mxGeometry x="595" y="212" width="160" height="40" as="geometry" />
        </mxCell>
        <mxCell id="yuZQpnkHnfRpSEt9olpA-52" value="" style="edgeStyle=orthogonalEdgeStyle;rounded=0;orthogonalLoop=1;jettySize=auto;html=1;entryX=0.5;entryY=0;entryDx=0;entryDy=0;exitX=0;exitY=0.5;exitDx=0;exitDy=0;" parent="1" source="yuZQpnkHnfRpSEt9olpA-49" target="yuZQpnkHnfRpSEt9olpA-66" edge="1">
          <mxGeometry relative="1" as="geometry">
            <mxPoint x="520" y="310" as="targetPoint" />
          </mxGeometry>
        </mxCell>
        <mxCell id="yuZQpnkHnfRpSEt9olpA-53" value="no" style="edgeLabel;html=1;align=center;verticalAlign=middle;resizable=0;points=[];fontSize=14;" parent="yuZQpnkHnfRpSEt9olpA-52" vertex="1" connectable="0">
          <mxGeometry x="-0.1596" y="-1" relative="1" as="geometry">
            <mxPoint x="37" y="-54" as="offset" />
          </mxGeometry>
        </mxCell>
        <mxCell id="yuZQpnkHnfRpSEt9olpA-55" value="" style="edgeStyle=orthogonalEdgeStyle;rounded=0;orthogonalLoop=1;jettySize=auto;html=1;entryX=0.5;entryY=0;entryDx=0;entryDy=0;exitX=1;exitY=0.5;exitDx=0;exitDy=0;" parent="1" source="yuZQpnkHnfRpSEt9olpA-49" target="yuZQpnkHnfRpSEt9olpA-56" edge="1">
          <mxGeometry relative="1" as="geometry">
            <mxPoint x="845" y="312" as="targetPoint" />
          </mxGeometry>
        </mxCell>
        <mxCell id="yuZQpnkHnfRpSEt9olpA-57" value="yes" style="edgeLabel;html=1;align=center;verticalAlign=middle;resizable=0;points=[];fontSize=14;" parent="yuZQpnkHnfRpSEt9olpA-55" vertex="1" connectable="0">
          <mxGeometry x="-0.651" y="-1" relative="1" as="geometry">
            <mxPoint x="-3" y="-16" as="offset" />
          </mxGeometry>
        </mxCell>
        <mxCell id="yuZQpnkHnfRpSEt9olpA-49" value="&lt;div&gt;chunk counter&lt;br&gt;&lt;/div&gt;&lt;div&gt;reached 512 ?&lt;/div&gt;" style="rhombus;whiteSpace=wrap;html=1;fontSize=14;" parent="1" vertex="1">
          <mxGeometry x="600" y="272" width="150" height="80" as="geometry" />
        </mxCell>
        <mxCell id="yuZQpnkHnfRpSEt9olpA-61" value="" style="edgeStyle=orthogonalEdgeStyle;rounded=0;orthogonalLoop=1;jettySize=auto;html=1;" parent="1" source="yuZQpnkHnfRpSEt9olpA-56" target="yuZQpnkHnfRpSEt9olpA-60" edge="1">
          <mxGeometry relative="1" as="geometry" />
        </mxCell>
        <mxCell id="yuZQpnkHnfRpSEt9olpA-56" value="reset chunk counter" style="fontSize=14;" parent="1" vertex="1">
          <mxGeometry x="730" y="353" width="180" height="40" as="geometry" />
        </mxCell>
        <mxCell id="yuZQpnkHnfRpSEt9olpA-87" value="" style="edgeStyle=orthogonalEdgeStyle;rounded=0;orthogonalLoop=1;jettySize=auto;html=1;entryX=0;entryY=0.5;entryDx=0;entryDy=0;exitX=0.5;exitY=1;exitDx=0;exitDy=0;" parent="1" source="yuZQpnkHnfRpSEt9olpA-58" target="38" edge="1">
          <mxGeometry relative="1" as="geometry">
            <mxPoint x="471" y="511" as="targetPoint" />
          </mxGeometry>
        </mxCell>
        <mxCell id="yuZQpnkHnfRpSEt9olpA-58" value="increment chunk counter&#xa;with the number of bytes&#xa;actually sent" style="fontSize=14;" parent="1" vertex="1">
          <mxGeometry x="460" y="544" width="179" height="56" as="geometry" />
        </mxCell>
        <mxCell id="yuZQpnkHnfRpSEt9olpA-63" value="" style="edgeStyle=orthogonalEdgeStyle;rounded=0;orthogonalLoop=1;jettySize=auto;html=1;" parent="1" source="yuZQpnkHnfRpSEt9olpA-60" target="yuZQpnkHnfRpSEt9olpA-62" edge="1">
          <mxGeometry relative="1" as="geometry" />
        </mxCell>
        <mxCell id="yuZQpnkHnfRpSEt9olpA-60" value="copy next 512 bytes&#xa;to the chunk buffer" style="fontSize=14;" parent="1" vertex="1">
          <mxGeometry x="730" y="414" width="180" height="40" as="geometry" />
        </mxCell>
        <mxCell id="yuZQpnkHnfRpSEt9olpA-65" value="" style="edgeStyle=orthogonalEdgeStyle;rounded=0;orthogonalLoop=1;jettySize=auto;html=1;" parent="1" source="yuZQpnkHnfRpSEt9olpA-62" edge="1">
          <mxGeometry relative="1" as="geometry">
            <mxPoint x="821" y="590" as="targetPoint" />
          </mxGeometry>
        </mxCell>
        <mxCell id="yuZQpnkHnfRpSEt9olpA-89" value="yes" style="edgeLabel;html=1;align=center;verticalAlign=middle;resizable=0;points=[];fontSize=14;" parent="yuZQpnkHnfRpSEt9olpA-65" vertex="1" connectable="0">
          <mxGeometry x="-0.1495" y="-2" relative="1" as="geometry">
            <mxPoint x="-19" y="-3" as="offset" />
          </mxGeometry>
        </mxCell>
        <mxCell id="yuZQpnkHnfRpSEt9olpA-82" value="" style="edgeStyle=orthogonalEdgeStyle;rounded=0;orthogonalLoop=1;jettySize=auto;html=1;exitX=0;exitY=0.5;exitDx=0;exitDy=0;entryX=0.5;entryY=0;entryDx=0;entryDy=0;" parent="1" source="yuZQpnkHnfRpSEt9olpA-62" target="38" edge="1">
          <mxGeometry relative="1" as="geometry">
            <mxPoint x="775" y="507" as="sourcePoint" />
            <mxPoint x="670" y="740" as="targetPoint" />
          </mxGeometry>
        </mxCell>
        <mxCell id="yuZQpnkHnfRpSEt9olpA-88" value="no" style="edgeLabel;html=1;align=center;verticalAlign=middle;resizable=0;points=[];fontSize=14;" parent="yuZQpnkHnfRpSEt9olpA-82" vertex="1" connectable="0">
          <mxGeometry x="-0.5868" y="-1" relative="1" as="geometry">
            <mxPoint x="52" y="-16" as="offset" />
          </mxGeometry>
        </mxCell>
        <mxCell id="yuZQpnkHnfRpSEt9olpA-62" value="All bytes sent ?" style="rhombus;whiteSpace=wrap;html=1;fontSize=14;" parent="1" vertex="1">
          <mxGeometry x="741" y="480" width="160" height="80" as="geometry" />
        </mxCell>
        <mxCell id="yuZQpnkHnfRpSEt9olpA-67" value="" style="edgeStyle=orthogonalEdgeStyle;rounded=0;orthogonalLoop=1;jettySize=auto;html=1;" parent="1" source="yuZQpnkHnfRpSEt9olpA-66" target="yuZQpnkHnfRpSEt9olpA-58" edge="1">
          <mxGeometry relative="1" as="geometry" />
        </mxCell>
        <mxCell id="yuZQpnkHnfRpSEt9olpA-66" value="try to send the remaining&#xa;bytes in the chunk buffer" style="fontSize=14;" parent="1" vertex="1">
          <mxGeometry x="460" y="482" width="179" height="40" as="geometry" />
        </mxCell>
        <mxCell id="yuZQpnkHnfRpSEt9olpA-70" value="" style="edgeStyle=orthogonalEdgeStyle;rounded=0;orthogonalLoop=1;jettySize=auto;html=1;" parent="1" source="yuZQpnkHnfRpSEt9olpA-68" target="yuZQpnkHnfRpSEt9olpA-69" edge="1">
          <mxGeometry relative="1" as="geometry" />
        </mxCell>
        <mxCell id="yuZQpnkHnfRpSEt9olpA-68" value="send 0x14" style="fontSize=14;" parent="1" vertex="1">
          <mxGeometry x="731" y="590" width="180" height="40" as="geometry" />
        </mxCell>
        <mxCell id="yuZQpnkHnfRpSEt9olpA-72" value="" style="edgeStyle=orthogonalEdgeStyle;rounded=0;orthogonalLoop=1;jettySize=auto;html=1;" parent="1" source="yuZQpnkHnfRpSEt9olpA-69" target="yuZQpnkHnfRpSEt9olpA-71" edge="1">
          <mxGeometry relative="1" as="geometry" />
        </mxCell>
        <mxCell id="yuZQpnkHnfRpSEt9olpA-69" value="disable UART IRQ" style="fontSize=14;" parent="1" vertex="1">
          <mxGeometry x="731" y="650" width="180" height="40" as="geometry" />
        </mxCell>
        <mxCell id="yuZQpnkHnfRpSEt9olpA-85" value="" style="edgeStyle=orthogonalEdgeStyle;rounded=0;orthogonalLoop=1;jettySize=auto;html=1;entryX=1;entryY=0.5;entryDx=0;entryDy=0;exitX=0.5;exitY=1;exitDx=0;exitDy=0;" parent="1" source="yuZQpnkHnfRpSEt9olpA-71" target="38" edge="1">
          <mxGeometry relative="1" as="geometry">
            <mxPoint x="860" y="817" as="targetPoint" />
          </mxGeometry>
        </mxCell>
        <mxCell id="yuZQpnkHnfRpSEt9olpA-71" value="set paused to false" style="fontSize=14;" parent="1" vertex="1">
          <mxGeometry x="731" y="710" width="180" height="40" as="geometry" />
        </mxCell>
        <mxCell id="yuZQpnkHnfRpSEt9olpA-94" value="UART interrupt handler" style="swimlane;whiteSpace=wrap;html=1;" parent="1" vertex="1">
          <mxGeometry x="439" y="110" width="501" height="700" as="geometry">
            <mxRectangle x="439" y="110" width="170" height="30" as="alternateBounds" />
          </mxGeometry>
        </mxCell>
        <mxCell id="yuZQpnkHnfRpSEt9olpA-95" value="Config Read Function" style="swimlane;whiteSpace=wrap;html=1;" parent="1" vertex="1">
          <mxGeometry x="120" y="110" width="319" height="700" as="geometry">
            <mxRectangle x="439" y="110" width="170" height="30" as="alternateBounds" />
          </mxGeometry>
        </mxCell>
        <mxCell id="yuZQpnkHnfRpSEt9olpA-124" value="" style="ellipse;shape=startState;fillColor=#000000;strokeColor=#120000;fontSize=14;" parent="yuZQpnkHnfRpSEt9olpA-95" vertex="1">
          <mxGeometry x="102" y="41" width="30" height="30" as="geometry" />
        </mxCell>
        <mxCell id="yuZQpnkHnfRpSEt9olpA-117" style="edgeStyle=orthogonalEdgeStyle;rounded=0;orthogonalLoop=1;jettySize=auto;html=1;exitX=1;exitY=0.5;exitDx=0;exitDy=0;entryX=0.5;entryY=1;entryDx=0;entryDy=0;" parent="1" source="yuZQpnkHnfRpSEt9olpA-107" target="yuZQpnkHnfRpSEt9olpA-116" edge="1">
          <mxGeometry relative="1" as="geometry" />
        </mxCell>
        <mxCell id="yuZQpnkHnfRpSEt9olpA-127" value="" style="edgeStyle=orthogonalEdgeStyle;rounded=0;orthogonalLoop=1;jettySize=auto;html=1;" parent="1" source="yuZQpnkHnfRpSEt9olpA-107" target="yuZQpnkHnfRpSEt9olpA-125" edge="1">
          <mxGeometry relative="1" as="geometry" />
        </mxCell>
        <mxCell id="yuZQpnkHnfRpSEt9olpA-107" value="paused is true ?" style="rhombus;whiteSpace=wrap;html=1;fontSize=14;" parent="1" vertex="1">
          <mxGeometry x="162" y="631" width="150" height="80" as="geometry" />
        </mxCell>
        <mxCell id="yuZQpnkHnfRpSEt9olpA-112" value="" style="edgeStyle=orthogonalEdgeStyle;rounded=0;orthogonalLoop=1;jettySize=auto;html=1;" parent="1" source="yuZQpnkHnfRpSEt9olpA-108" target="yuZQpnkHnfRpSEt9olpA-109" edge="1">
          <mxGeometry relative="1" as="geometry" />
        </mxCell>
        <mxCell id="yuZQpnkHnfRpSEt9olpA-108" value="Read config file" style="fontSize=14;" parent="1" vertex="1">
          <mxGeometry x="158" y="221" width="160" height="40" as="geometry" />
        </mxCell>
        <mxCell id="yuZQpnkHnfRpSEt9olpA-113" value="" style="edgeStyle=orthogonalEdgeStyle;rounded=0;orthogonalLoop=1;jettySize=auto;html=1;" parent="1" source="yuZQpnkHnfRpSEt9olpA-109" target="yuZQpnkHnfRpSEt9olpA-110" edge="1">
          <mxGeometry relative="1" as="geometry" />
        </mxCell>
        <mxCell id="yuZQpnkHnfRpSEt9olpA-109" value="parse JSON" style="fontSize=14;" parent="1" vertex="1">
          <mxGeometry x="158" y="281" width="160" height="40" as="geometry" />
        </mxCell>
        <mxCell id="yuZQpnkHnfRpSEt9olpA-122" value="" style="edgeStyle=orthogonalEdgeStyle;rounded=0;orthogonalLoop=1;jettySize=auto;html=1;" parent="1" source="yuZQpnkHnfRpSEt9olpA-110" target="yuZQpnkHnfRpSEt9olpA-120" edge="1">
          <mxGeometry relative="1" as="geometry" />
        </mxCell>
        <mxCell id="yuZQpnkHnfRpSEt9olpA-110" value="configure system" style="fontSize=14;" parent="1" vertex="1">
          <mxGeometry x="158" y="341" width="160" height="40" as="geometry" />
        </mxCell>
        <mxCell id="yuZQpnkHnfRpSEt9olpA-118" value="" style="edgeStyle=orthogonalEdgeStyle;rounded=0;orthogonalLoop=1;jettySize=auto;html=1;" parent="1" source="yuZQpnkHnfRpSEt9olpA-114" target="yuZQpnkHnfRpSEt9olpA-107" edge="1">
          <mxGeometry relative="1" as="geometry" />
        </mxCell>
        <mxCell id="yuZQpnkHnfRpSEt9olpA-114" value="set paused to true" style="fontSize=14;" parent="1" vertex="1">
          <mxGeometry x="157" y="491" width="160" height="40" as="geometry" />
        </mxCell>
        <mxCell id="yuZQpnkHnfRpSEt9olpA-119" style="edgeStyle=orthogonalEdgeStyle;rounded=0;orthogonalLoop=1;jettySize=auto;html=1;exitX=0.5;exitY=0;exitDx=0;exitDy=0;" parent="1" source="yuZQpnkHnfRpSEt9olpA-116" edge="1">
          <mxGeometry relative="1" as="geometry">
            <mxPoint x="236" y="571" as="targetPoint" />
            <mxPoint x="347" y="591" as="sourcePoint" />
            <Array as="points">
              <mxPoint x="353" y="571" />
            </Array>
          </mxGeometry>
        </mxCell>
        <mxCell id="yuZQpnkHnfRpSEt9olpA-116" value="wait 100 ms" style="fontSize=14;" parent="1" vertex="1">
          <mxGeometry x="288" y="591" width="130" height="40" as="geometry" />
        </mxCell>
        <mxCell id="yuZQpnkHnfRpSEt9olpA-121" value="" style="edgeStyle=orthogonalEdgeStyle;rounded=0;orthogonalLoop=1;jettySize=auto;html=1;" parent="1" source="yuZQpnkHnfRpSEt9olpA-120" target="yuZQpnkHnfRpSEt9olpA-114" edge="1">
          <mxGeometry relative="1" as="geometry">
            <Array as="points">
              <mxPoint x="237" y="491" />
              <mxPoint x="237" y="491" />
            </Array>
          </mxGeometry>
        </mxCell>
        <mxCell id="yuZQpnkHnfRpSEt9olpA-120" value="enable UART IRQ" style="fontSize=14;" parent="1" vertex="1">
          <mxGeometry x="158" y="431" width="160" height="40" as="geometry" />
        </mxCell>
        <mxCell id="yuZQpnkHnfRpSEt9olpA-123" value="" style="edgeStyle=orthogonalEdgeStyle;rounded=0;orthogonalLoop=1;jettySize=auto;html=1;fontSize=14;exitX=0.5;exitY=0.633;exitDx=0;exitDy=0;exitPerimeter=0;" parent="1" source="yuZQpnkHnfRpSEt9olpA-124" edge="1">
          <mxGeometry relative="1" as="geometry">
            <mxPoint x="237" y="221" as="targetPoint" />
          </mxGeometry>
        </mxCell>
        <mxCell id="yuZQpnkHnfRpSEt9olpA-125" value="" style="ellipse;shape=endState;fillColor=#000000;strokeColor=#000000;fontSize=14;" parent="1" vertex="1">
          <mxGeometry x="222" y="749" width="30" height="30" as="geometry" />
        </mxCell>
      </root>
    </mxGraphModel>
  </diagram>
</mxfile>
